<svg xmlns="http://www.w3.org/2000/svg" xmlns:xlink="http://www.w3.org/1999/xlink" zoomAndPan="magnify" preserveAspectRatio="xMidYMid meet" version="1.0" viewBox="99.07 111.92 176.75 170.75"><defs><g/><clipPath id="id1"><path d="M 103.066406 115.921875 L 271.816406 115.921875 L 271.816406 278.671875 L 103.066406 278.671875 Z M 103.066406 115.921875 " clip-rule="nonzero"/></clipPath><clipPath id="id2"><path d="M 187.441406 115.921875 C 140.839844 115.921875 103.066406 152.355469 103.066406 197.296875 C 103.066406 242.238281 140.839844 278.671875 187.441406 278.671875 C 234.039062 278.671875 271.816406 242.238281 271.816406 197.296875 C 271.816406 152.355469 234.039062 115.921875 187.441406 115.921875 " clip-rule="nonzero"/></clipPath></defs><g clip-path="url(#id1)"><g clip-path="url(#id2)"><path stroke-linecap="butt" transform="matrix(0.749479, 0, 0, 0.750432, 103.065715, 115.922848)" fill="none" stroke-linejoin="miter" d="M 112.579057 -0.0012971 C 50.400485 -0.0012971 0.000921864 48.548846 0.000921864 108.436205 C 0.000921864 168.323564 50.400485 216.873707 112.579057 216.873707 C 174.752416 216.873707 225.157191 168.323564 225.157191 108.436205 C 225.157191 48.548846 174.752416 -0.0012971 112.579057 -0.0012971 " stroke="#004aad" stroke-width="8" stroke-opacity="1" stroke-miterlimit="4"/></g></g><g fill="#004aad" fill-opacity="1"><g transform="translate(120.960428, 241.119951)"><g><path d="M 9.78125 -98.953125 L 9.78125 -103.453125 L 37.4375 -103.453125 L 80.75 -11.421875 L 75.78125 0 L 56.234375 0 Z M 94.734375 -43.453125 L 94.140625 -43.453125 L 84.0625 -19.09375 L 71.125 -46.765625 L 94.734375 -103.453125 L 123.3125 -103.453125 L 123.3125 0 L 94.734375 0 Z M 9.78125 -84.0625 L 37.4375 -25.109375 L 37.4375 0 L 9.78125 0 Z M 9.78125 -84.0625 "/></g></g></g><g fill="#fa7c07" fill-opacity="1"><g transform="translate(129.86488, 267.977458)"><g><path d="M 10.203125 -103.25 L 10.203125 -107.96875 L 39.078125 -107.96875 L 84.265625 -11.921875 L 79.09375 0 L 58.6875 0 Z M 98.859375 -45.34375 L 98.234375 -45.34375 L 87.71875 -19.921875 L 74.21875 -48.796875 L 98.859375 -107.96875 L 128.671875 -107.96875 L 128.671875 0 L 98.859375 0 Z M 10.203125 -87.71875 L 39.078125 -26.203125 L 39.078125 0 L 10.203125 0 Z M 10.203125 -87.71875 "/></g></g></g></svg>